<?xml version="1.0" encoding="UTF-8"?>
<svg width="24px" height="24px" viewBox="0 0 24 24" version="1.1" xmlns="http://www.w3.org/2000/svg" xmlns:xlink="http://www.w3.org/1999/xlink">
    <title>19BB2733-FE98-449C-848A-A6798E5BB566@1,5x</title>
    <g id="design" stroke="none" stroke-width="1" fill="none" fill-rule="evenodd">
        <g id="Login" transform="translate(-932.000000, -451.000000)" fill-rule="nonzero">
            <g id="ic_padlock" transform="translate(932.000000, 451.000000)">
                <g id="002-lock" transform="translate(6.000000, 4.000000)">
                    <path d="M10.5,6 L10,6 L10,4 C10,1.79394531 8.20605469,0 6,0 C3.79394531,0 2,1.79394531 2,4 L2,6 L1.5,6 C0.673339844,6 0,6.67260744 0,7.5 L0,14.5 C0,15.3273926 0.673339844,16 1.5,16 L10.5,16 C11.3266602,16 12,15.3273926 12,14.5 L12,7.5 C12,6.67260744 11.3266602,6 10.5,6 Z M3.33337403,4 C3.33337403,2.52929688 4.52929688,1.33337403 6,1.33337403 C7.47070312,1.33337403 8.66662597,2.52929688 8.66662597,4 L8.66662597,6 L3.33337403,6 L3.33337403,4 Z" id="Shape" fill="#737AF1"></path>
                    <path d="M8.66662597,4 C8.66662597,2.52929688 7.47070312,1.33337403 6,1.33337403 C4.52929688,1.33337403 3.33337403,2.52929688 3.33337403,4 L3.33337403,4 L3.33337403,6 L2,6 L2,4 C2,1.79394531 3.79394531,0 6,0 C8.20605469,0 10,1.79394531 10,4 L10,4 L10,6 L8.66662597,6 Z" id="Combined-Shape" fill="#FCD035"></path>
                </g>
            </g>
        </g>
    </g>
</svg>