<?xml version="1.0" encoding="UTF-8"?>
<svg width="20px" height="20px" viewBox="0 0 20 20" version="1.1" xmlns="http://www.w3.org/2000/svg" xmlns:xlink="http://www.w3.org/1999/xlink">
    <title>4E4AF425-C7A1-4024-8AA5-48AED7D6BF59@1,5x</title>
    <defs>
        <filter id="filter-1">
            <feColorMatrix in="SourceGraphic" type="matrix" values="0 0 0 0 0.815686 0 0 0 0 0.788235 0 0 0 0 0.839216 0 0 0 1.000000 0"></feColorMatrix>
        </filter>
    </defs>
    <g id="design" stroke="none" stroke-width="1" fill="none" fill-rule="evenodd">
        <g id="Icons/16px/Dashboard" transform="translate(-28.000000, -243.000000)" filter="url(#filter-1)">
            <g transform="translate(28.000000, 243.000000)" id="settings-6" fill="#000000" fill-rule="nonzero">
                <path d="M18.6235119,7.90922619 L16.3950893,7.36235119 C16.2723214,6.97172619 16.1160714,6.5922619 15.9263393,6.22395833 L17.0647321,4.3266369 C17.1986607,4.10342262 17.1651786,3.82440476 16.9866071,3.64583333 L15.4017857,2.0610119 C15.2232143,1.88244048 14.9441964,1.84895833 14.7209821,1.9828869 L12.8236607,3.12127976 C12.4553571,2.93154762 12.0758929,2.77529762 11.6852679,2.65252976 L11.1495536,0.424107143 C11.0825893,0.178571429 10.859375,0 10.6026786,0 L8.37053571,0 C8.11383929,0 7.890625,0.178571429 7.82366071,0.424107143 L7.28794643,2.65252976 C6.89732143,2.77529762 6.51785714,2.93154762 6.14955357,3.12127976 L4.25223214,1.9828869 C4.02901786,1.84895833 3.75,1.88244048 3.57142857,2.0610119 L1.98660714,3.64583333 C1.80803571,3.82440476 1.77455357,4.10342262 1.90848214,4.3266369 L3.046875,6.22395833 C2.85714286,6.5922619 2.70089286,6.97172619 2.578125,7.36235119 L0.424107143,7.90922619 C0.178571429,7.96502976 0,8.18824405 0,8.44494048 L0,10.6770833 C0,10.9337798 0.178571429,11.156994 0.424107143,11.2127976 L2.578125,11.7596726 C2.70089286,12.1502976 2.85714286,12.5297619 3.046875,12.8980655 L1.90848214,14.7953869 C1.77455357,15.0186012 1.80803571,15.297619 1.98660714,15.4761905 L3.57142857,17.0610119 C3.75,17.2395833 4.02901786,17.2730655 4.25223214,17.1391369 L6.14955357,16.000744 C6.51785714,16.1904762 6.89732143,16.3467262 7.28794643,16.469494 L7.82366071,18.6235119 C7.890625,18.8690476 8.11383929,19.047619 8.37053571,19.047619 L10.6026786,19.047619 C10.859375,19.047619 11.0825893,18.8690476 11.1495536,18.6235119 L11.6852679,16.469494 C12.0758929,16.3467262 12.4553571,16.1904762 12.8236607,16.000744 L14.7209821,17.1391369 C14.9441964,17.2730655 15.2232143,17.2395833 15.4017857,17.0610119 L16.9866071,15.4761905 C17.1651786,15.297619 17.1986607,15.0186012 17.0647321,14.7953869 L15.9263393,12.8980655 C16.1160714,12.5297619 16.2723214,12.1502976 16.3950893,11.7596726 L18.6235119,11.2127976 C18.8690476,11.156994 19.047619,10.9337798 19.047619,10.6770833 L19.047619,8.44494048 C19.047619,8.18824405 18.8690476,7.96502976 18.6235119,7.90922619 Z M9.48660714,12.3511905 C7.94642857,12.3511905 6.69642857,11.1011905 6.69642857,9.5610119 C6.69642857,8.02083333 7.94642857,6.77083333 9.48660714,6.77083333 C11.0267857,6.77083333 12.2767857,8.02083333 12.2767857,9.5610119 C12.2767857,11.1011905 11.0267857,12.3511905 9.48660714,12.3511905 Z" id="Shape"></path>
            </g>
        </g>
    </g>
</svg>