<?xml version="1.0" encoding="UTF-8"?>
<svg width="24px" height="24px" viewBox="0 0 24 24" version="1.1" xmlns="http://www.w3.org/2000/svg" xmlns:xlink="http://www.w3.org/1999/xlink">
    <title>95CD8E09-E391-4786-BAC7-73FCA9831CF6@1,5x</title>
    <g id="design" stroke="none" stroke-width="1" fill="none" fill-rule="evenodd">
        <g id="Login" transform="translate(-932.000000, -371.000000)" fill-rule="nonzero">
            <g id="ic_username" transform="translate(932.000000, 371.000000)">
                <g id="001-user" transform="translate(5.000000, 4.000000)">
                    <path d="M6.57348631,7.70727537 C7.63232422,7.70727537 8.54919434,7.32751466 9.29833984,6.57824706 C10.0474853,5.82910156 10.4272461,4.91247559 10.4272461,3.85351562 C10.4272461,2.79492187 10.0474853,1.87817381 9.29821778,1.12878419 C8.54895019,0.37976075 7.63220216,-5.95079541e-14 6.57348631,-5.95079541e-14 C5.51452637,-5.95079541e-14 4.59790038,0.37976075 3.84875488,1.12890625 C3.09960938,1.87805175 2.71972656,2.79479981 2.71972656,3.85351562 C2.71972656,4.91247559 3.09960938,5.82922362 3.84887694,6.57836912 C4.59814453,7.32739256 5.51489256,7.70727537 6.57348631,7.70727537 Z" id="Path" fill="#FCD035"></path>
                    <path d="M13.3165283,12.3032227 C13.2949219,11.9914551 13.2512207,11.6513672 13.1868897,11.2922363 C13.1219482,10.9304199 13.0383301,10.5883789 12.9382324,10.2757568 C12.8348389,9.95263672 12.6942139,9.63354494 12.5203857,9.32775878 C12.3399658,9.01037597 12.1280517,8.73400878 11.8902588,8.50659181 C11.6416016,8.26867675 11.3371582,8.07739256 10.9851074,7.93786622 C10.6342773,7.79907225 10.2454834,7.72875975 9.82958984,7.72875975 C9.66625975,7.72875975 9.50830078,7.79577638 9.20324706,7.99438475 C9.01550294,8.11682128 8.79589844,8.25842284 8.55078125,8.41503906 C8.34118653,8.548584 8.05725097,8.67370606 7.70654297,8.78698731 C7.36437987,8.89770506 7.01696778,8.95385744 6.67407225,8.95385744 C6.33117675,8.95385744 5.98388672,8.89770506 5.64135744,8.78698731 C5.29101562,8.67382813 5.00708006,8.54870606 4.7977295,8.41516113 C4.55493162,8.26000975 4.33520506,8.11840819 4.14465331,7.99426269 C3.83996581,7.79565431 3.68188475,7.72863769 3.51855469,7.72863769 C3.10253906,7.72863769 2.71386719,7.79907225 2.36315919,7.93798828 C2.01135253,8.0772705 1.70678712,8.26855469 1.45788575,8.50671388 C1.22021484,8.73425294 1.00817872,9.01049806 0.828002937,9.32775878 C0.654296875,9.63354494 0.513671875,9.95251466 0.41015625,10.2758789 C0.310180656,10.588501 0.2265625,10.9304199 0.161621094,11.2922363 C0.0972900312,11.6508789 0.053588875,11.9910889 0.0319824375,12.3035889 C0.0107421875,12.6097412 -2.66453526e-15,12.9274903 -2.66453526e-15,13.2484131 C-2.66453526e-15,14.0836182 0.265502937,14.7597656 0.7890625,15.2584228 C1.30615234,15.7504883 1.99035644,16.0001221 2.82238769,16.0001221 L10.5264892,16.0001221 C11.3585205,16.0001221 12.0424805,15.7506103 12.5596924,15.2584228 C13.083374,14.7601318 13.3488769,14.0838623 13.3488769,13.248291 C13.3488769,12.9259033 13.3378906,12.6079102 13.3165283,12.3032227 L13.3165283,12.3032227 Z" id="Path" fill="#737AF1"></path>
                </g>
            </g>
        </g>
    </g>
</svg>