<svg width="158" height="158" viewBox="0 0 158 158" fill="none" xmlns="http://www.w3.org/2000/svg">
<g filter="url(#filter0_d_2_812)">
<rect x="4" width="150" height="150" rx="4" fill="#C4C4C4"/>
</g>
<g clip-path="url(#clip0_2_812)">
<path d="M81.6287 73.5182C81.6287 75.5192 80.001 77.1469 78 77.1469C75.999 77.1469 74.3719 75.5192 74.3719 73.5182C74.3719 71.5173 75.999 69.8895 78 69.8895C80.001 69.8895 81.6287 71.5179 81.6287 73.5182ZM89.25 68.3656V78.6721C89.25 80.0461 88.136 81.16 86.762 81.16H69.238C67.864 81.16 66.75 80.0461 66.75 78.6721V68.3656C66.75 66.9917 67.864 65.8777 69.238 65.8777H72.2982V65.0168C72.2982 63.8145 73.2722 62.8398 74.4752 62.8398H81.5248C82.7278 62.8398 83.7018 63.8145 83.7018 65.0168V65.877H86.762C88.136 65.8777 89.25 66.9917 89.25 68.3656ZM83.4947 73.5182C83.4947 70.4885 81.0297 68.0235 78 68.0235C74.9709 68.0235 72.5059 70.4885 72.5059 73.5182C72.5059 76.548 74.9709 79.0129 78 79.0129C81.0297 79.0129 83.4947 76.548 83.4947 73.5182Z" fill="white"/>
</g>
<path d="M56.9045 90.6V99H55.6205L50.9885 93.312V99H49.4405V90.6H50.7245L55.3565 96.288V90.6H56.9045ZM61.8913 99.084C61.2433 99.084 60.6593 98.944 60.1393 98.664C59.6193 98.384 59.2113 97.996 58.9153 97.5C58.6273 96.996 58.4833 96.428 58.4833 95.796C58.4833 95.164 58.6273 94.6 58.9153 94.104C59.2113 93.608 59.6193 93.22 60.1393 92.94C60.6593 92.66 61.2433 92.52 61.8913 92.52C62.5473 92.52 63.1353 92.66 63.6553 92.94C64.1753 93.22 64.5793 93.608 64.8673 94.104C65.1633 94.6 65.3113 95.164 65.3113 95.796C65.3113 96.428 65.1633 96.996 64.8673 97.5C64.5793 97.996 64.1753 98.384 63.6553 98.664C63.1353 98.944 62.5473 99.084 61.8913 99.084ZM61.8913 97.8C62.4433 97.8 62.8993 97.616 63.2593 97.248C63.6193 96.88 63.7993 96.396 63.7993 95.796C63.7993 95.196 63.6193 94.712 63.2593 94.344C62.8993 93.976 62.4433 93.792 61.8913 93.792C61.3393 93.792 60.8833 93.976 60.5233 94.344C60.1713 94.712 59.9953 95.196 59.9953 95.796C59.9953 96.396 60.1713 96.88 60.5233 97.248C60.8833 97.616 61.3393 97.8 61.8913 97.8ZM70.2061 90.6H71.7661V99H70.2061V90.6ZM81.9822 92.52C82.7902 92.52 83.4302 92.756 83.9022 93.228C84.3742 93.692 84.6102 94.392 84.6102 95.328V99H83.1102V95.52C83.1102 94.96 82.9862 94.54 82.7382 94.26C82.4902 93.972 82.1342 93.828 81.6702 93.828C81.1662 93.828 80.7622 93.996 80.4582 94.332C80.1542 94.66 80.0022 95.132 80.0022 95.748V99H78.5022V95.52C78.5022 94.96 78.3782 94.54 78.1302 94.26C77.8822 93.972 77.5262 93.828 77.0622 93.828C76.5502 93.828 76.1422 93.992 75.8382 94.32C75.5422 94.648 75.3942 95.124 75.3942 95.748V99H73.8942V92.592H75.3222V93.408C75.5622 93.12 75.8622 92.9 76.2222 92.748C76.5822 92.596 76.9822 92.52 77.4222 92.52C77.9022 92.52 78.3262 92.612 78.6942 92.796C79.0702 92.972 79.3662 93.236 79.5822 93.588C79.8462 93.252 80.1862 92.992 80.6022 92.808C81.0182 92.616 81.4782 92.52 81.9822 92.52ZM88.975 92.52C89.919 92.52 90.639 92.748 91.135 93.204C91.639 93.652 91.891 94.332 91.891 95.244V99H90.475V98.22C90.291 98.5 90.027 98.716 89.683 98.868C89.347 99.012 88.939 99.084 88.459 99.084C87.979 99.084 87.559 99.004 87.199 98.844C86.839 98.676 86.559 98.448 86.359 98.16C86.167 97.864 86.071 97.532 86.071 97.164C86.071 96.588 86.283 96.128 86.707 95.784C87.139 95.432 87.815 95.256 88.735 95.256H90.391V95.16C90.391 94.712 90.255 94.368 89.983 94.128C89.719 93.888 89.323 93.768 88.795 93.768C88.435 93.768 88.079 93.824 87.727 93.936C87.383 94.048 87.091 94.204 86.851 94.404L86.263 93.312C86.599 93.056 87.003 92.86 87.475 92.724C87.947 92.588 88.447 92.52 88.975 92.52ZM88.771 97.992C89.147 97.992 89.479 97.908 89.767 97.74C90.063 97.564 90.271 97.316 90.391 96.996V96.252H88.843C87.979 96.252 87.547 96.536 87.547 97.104C87.547 97.376 87.655 97.592 87.871 97.752C88.087 97.912 88.387 97.992 88.771 97.992ZM100.235 92.592V98.028C100.235 100.284 99.0826 101.412 96.7786 101.412C96.1626 101.412 95.5786 101.332 95.0266 101.172C94.4746 101.02 94.0186 100.796 93.6586 100.5L94.3306 99.372C94.6106 99.604 94.9626 99.788 95.3866 99.924C95.8186 100.068 96.2546 100.14 96.6946 100.14C97.3986 100.14 97.9146 99.98 98.2426 99.66C98.5706 99.34 98.7346 98.852 98.7346 98.196V97.86C98.4786 98.14 98.1666 98.352 97.7986 98.496C97.4306 98.64 97.0266 98.712 96.5866 98.712C95.9786 98.712 95.4266 98.584 94.9306 98.328C94.4426 98.064 94.0546 97.696 93.7666 97.224C93.4866 96.752 93.3466 96.212 93.3466 95.604C93.3466 94.996 93.4866 94.46 93.7666 93.996C94.0546 93.524 94.4426 93.16 94.9306 92.904C95.4266 92.648 95.9786 92.52 96.5866 92.52C97.0506 92.52 97.4706 92.596 97.8466 92.748C98.2306 92.9 98.5506 93.132 98.8066 93.444V92.592H100.235ZM96.8146 97.44C97.3826 97.44 97.8466 97.272 98.2066 96.936C98.5746 96.592 98.7586 96.148 98.7586 95.604C98.7586 95.068 98.5746 94.632 98.2066 94.296C97.8466 93.96 97.3826 93.792 96.8146 93.792C96.2386 93.792 95.7666 93.96 95.3986 94.296C95.0386 94.632 94.8586 95.068 94.8586 95.604C94.8586 96.148 95.0386 96.592 95.3986 96.936C95.7666 97.272 96.2386 97.44 96.8146 97.44ZM108.231 95.832C108.231 95.936 108.223 96.084 108.207 96.276H103.179C103.267 96.748 103.495 97.124 103.863 97.404C104.239 97.676 104.703 97.812 105.255 97.812C105.959 97.812 106.539 97.58 106.995 97.116L107.799 98.04C107.511 98.384 107.147 98.644 106.707 98.82C106.267 98.996 105.771 99.084 105.219 99.084C104.515 99.084 103.895 98.944 103.359 98.664C102.823 98.384 102.407 97.996 102.111 97.5C101.823 96.996 101.679 96.428 101.679 95.796C101.679 95.172 101.819 94.612 102.099 94.116C102.387 93.612 102.783 93.22 103.287 92.94C103.791 92.66 104.359 92.52 104.991 92.52C105.615 92.52 106.171 92.66 106.659 92.94C107.155 93.212 107.539 93.6 107.811 94.104C108.091 94.6 108.231 95.176 108.231 95.832ZM104.991 93.72C104.511 93.72 104.103 93.864 103.767 94.152C103.439 94.432 103.239 94.808 103.167 95.28H106.803C106.739 94.816 106.543 94.44 106.215 94.152C105.887 93.864 105.479 93.72 104.991 93.72Z" fill="white"/>
<defs>
<filter id="filter0_d_2_812" x="0" y="0" width="158" height="158" filterUnits="userSpaceOnUse" color-interpolation-filters="sRGB">
<feFlood flood-opacity="0" result="BackgroundImageFix"/>
<feColorMatrix in="SourceAlpha" type="matrix" values="0 0 0 0 0 0 0 0 0 0 0 0 0 0 0 0 0 0 127 0" result="hardAlpha"/>
<feOffset dy="4"/>
<feGaussianBlur stdDeviation="2"/>
<feColorMatrix type="matrix" values="0 0 0 0 0 0 0 0 0 0 0 0 0 0 0 0 0 0 0.1 0"/>
<feBlend mode="normal" in2="BackgroundImageFix" result="effect1_dropShadow_2_812"/>
<feBlend mode="normal" in="SourceGraphic" in2="effect1_dropShadow_2_812" result="shape"/>
</filter>
<clipPath id="clip0_2_812">
<rect width="22.5" height="22.5" fill="white" transform="translate(66.75 60.75)"/>
</clipPath>
</defs>
</svg>
