<?xml version="1.0" encoding="UTF-8"?>
<svg width="260px" height="192px" viewBox="0 0 260 192" version="1.1" xmlns="http://www.w3.org/2000/svg" xmlns:xlink="http://www.w3.org/1999/xlink">
    <title>30913EE2-FB47-4910-A2C2-ACB019524C57@1,5x</title>
    <defs>
        <linearGradient x1="73.5779239%" y1="0%" x2="26.4220761%" y2="100%" id="linearGradient-1">
            <stop stop-color="#A2A6F6" offset="0%"></stop>
            <stop stop-color="#737AF1" offset="100%"></stop>
        </linearGradient>
        <linearGradient x1="96.7350072%" y1="46.751047%" x2="1.81727615%" y2="53.3495962%" id="linearGradient-2">
            <stop stop-color="#FEEDAE" offset="0%"></stop>
            <stop stop-color="#A2A6F6" offset="100%"></stop>
        </linearGradient>
        <linearGradient x1="72.0411701%" y1="3.26499277%" x2="27.2760576%" y2="98.1827239%" id="linearGradient-3">
            <stop stop-color="#FEEDAE" offset="0%"></stop>
            <stop stop-color="#A2A6F6" offset="100%"></stop>
        </linearGradient>
    </defs>
    <g id="design" stroke="none" stroke-width="1" fill="none" fill-rule="evenodd">
        <g id="G0-Registration-Form-Committee---Category-Individual" transform="translate(-1053.000000, -361.000000)">
            <g id="drawkit-nature-man-colour" transform="translate(1053.000000, 361.000000)">
                <path d="M156.305054,74.8790614 C156.305054,69.7494585 145.276173,57.3149819 136.436643,57.3149819 C129.648014,57.3149819 129.537726,60.9052347 122.922744,60.9052347 C112.724549,60.9052347 105.156859,43.8550542 85.5442238,43.8550542 C64.6480144,43.8550542 37.3433213,63.4676895 37.3433213,78.8518051 C37.3433213,100.881408 156.305054,106.161191 156.305054,74.8790614 Z" id="Path" fill="#F2F3FF" fill-rule="nonzero"></path>
                <path d="M208.96444,150.340072 C209.199097,126.405054 209.574549,87.9564982 209.574549,82.266065 C209.574549,73.9169675 197.175271,48.9095668 175.485921,48.9095668 C151.724549,48.9095668 139.98231,76.1790614 124.429242,76.1790614 C110.173827,76.1790614 109.049819,68.9610108 91.4036101,68.9610108 C79.9054152,68.9610108 56.2472924,83.6974729 56.2472924,98.7624549 L71.9951264,150.328339 L208.96444,150.340072 Z" id="Path" fill="#F7F7FF" fill-rule="nonzero"></path>
                <ellipse id="Oval" fill="#D4977A" fill-rule="nonzero" transform="translate(130.841817, 110.514256) rotate(-87.240000) translate(-130.841817, -110.514256) " cx="130.841817" cy="110.514256" rx="2.75252708" ry="1.23194946"></ellipse>
                <path d="M127.932671,124.527798 C127.88574,124.072563 128.94639,114.618231 129.791155,111.621661 C130.29424,111.436575 130.831126,111.361363 131.365704,111.401083 L131.285921,120.716968 L130.112635,125.098014 L127.932671,124.527798 Z" id="Path" fill="#DCA388" fill-rule="nonzero"></path>
                <polygon id="Path" fill="#737AF1" fill-rule="nonzero" points="135.092058 111.363538 127.71444 111.973646 127.479783 110.514079 134.580505 108.268412"></polygon>
                <rect id="Rectangle" fill="#EAAD90" fill-rule="nonzero" x="117.16426" y="185.435379" width="3.23122744" height="2.73375451"></rect>
                <rect id="Rectangle" fill="#EAAD90" fill-rule="nonzero" x="127.16065" y="185.862455" width="3.23122744" height="2.73375451"></rect>
                <path d="M116.8287,139.855596 L116.8287,185.58556 L120.613718,185.58556 L124.96426,161.120217 C124.96426,161.120217 125.562635,147.88556 116.8287,139.855596 Z" id="Path" fill="#FFCF5C" fill-rule="nonzero"></path>
                <path d="M129.296029,138.954513 C129.401625,140.273285 130.718051,164.269314 130.718051,164.269314 L130.718051,186.118231 L126.834477,186.533574 L124.337726,163.302527 L116.8287,139.855596 C117.96444,139.231408 126.283032,138.055776 129.296029,138.954513 Z" id="Path" fill="#FFE29D" fill-rule="nonzero"></path>
                <path d="M122.375993,118.846751 C129.83574,118.846751 130.190072,137.814079 129.303069,138.954513 C128.416065,140.094946 117.804874,140.871661 116.8287,139.853249 C115.852527,138.834838 113.081227,118.846751 122.375993,118.846751 Z" id="Path" fill="#737AF1" fill-rule="nonzero"></path>
                <ellipse id="Oval" fill="#E4A283" fill-rule="nonzero" transform="translate(132.076996, 110.513344) rotate(-87.240000) translate(-132.076996, -110.513344) " cx="132.076996" cy="110.513344" rx="2.75252708" ry="1.23194946"></ellipse>
                <polygon id="Path" fill="#737AF1" fill-rule="nonzero" points="126.857942 188.169134 126.857942 190.902888 134.540614 190.902888 134.540614 189.907942 130.544404 188.169134"></polygon>
                <polygon id="Path" fill="#737AF1" fill-rule="nonzero" points="117.063357 187.737365 117.063357 190.471119 124.746029 190.471119 124.746029 189.476173 120.749819 187.737365"></polygon>
                <rect id="Rectangle" fill="#737AF1" fill-rule="nonzero" transform="translate(127.289592, 111.298900) rotate(-8.920000) translate(-127.289592, -111.298900) " x="126.836704" y="110.846012" width="1" height="1"></rect>
                <path d="M122.922744,120.49639 C122.922744,121.122924 120.01065,121.200361 120.01065,120.49639 L120.01065,114.277978 L122.922744,114.277978 L122.922744,120.49639 Z" id="Path" fill="#DCA388" fill-rule="nonzero"></path>
                <ellipse id="Oval" fill="#EAAD90" fill-rule="nonzero" cx="122.833574" cy="112.475812" rx="3.05758123" ry="4.66732852"></ellipse>
                <path d="M117.509206,110.551625 C117.509206,109.113177 118.13574,108.205054 118.644946,107.916426 C119.628159,107.353249 120.038809,107.604332 121.029061,107.165523 C122.101444,106.696209 123.0213,105.325812 124.276715,105.325812 C125.45,105.325812 125.344404,105.992238 126.139892,106.18935 C126.609206,106.304332 129.27491,105.691877 129.27491,107.416606 C129.27491,110.072924 126.325271,110.288809 125.642419,110.629061 C125.540119,110.323161 125.421045,110.023127 125.28574,109.730325 C124.748375,110.284116 122.803069,110.668953 122.488628,110.793321 C121.761191,111.093682 121.413899,112.231769 121.413899,112.975632 C121.413899,113.719495 120.740433,113.721841 120.57148,113.721841 C119.015704,113.721841 117.509206,112.724549 117.509206,110.551625 Z" id="Path" fill="#3F3356" fill-rule="nonzero"></path>
                <circle id="Oval" fill="#D89575" fill-rule="nonzero" cx="120.066968" cy="113.261913" r="1.01606498"></circle>
                <rect id="Rectangle" fill="#FFA26B" fill-rule="nonzero" x="109.77491" y="119.520217" width="5.89927798" height="19.8543321" rx="2.94963899"></rect>
                <ellipse id="Oval" stroke="#FFA26B" stroke-width="0.865884477" cx="117.302708" cy="127.240433" rx="7.12888087" ry="7.71787004"></ellipse>
                <path d="M124.8,123.859025 C125.393682,123.859025 128.387906,123.983394 129.605776,124.422202 C129.699639,123.82852 130.229964,115.324549 131.133394,112.475812 C131.478339,112.095668 132.881588,112.140253 132.881588,112.475812 C132.881588,112.811372 134.87852,126.761733 132.881588,128.416065 C130.884657,130.070397 124.112455,127.852888 123.833213,127.634657 C123.553971,127.416426 124.8,123.859025 124.8,123.859025 Z" id="Path" fill="#EAAD90" fill-rule="nonzero"></path>
                <path d="M118.422022,123.356859 C119.083755,120.662996 125.076895,122.903971 125.618953,123.518773 C126.268953,124.255596 125.107401,128.409025 124.211011,128.601444 C122.749097,128.918231 117.563177,126.850903 118.422022,123.356859 Z" id="Path" fill="#A2A6F6" fill-rule="nonzero"></path>
                <polygon id="Path" fill="#EDEEFD" fill-rule="nonzero" points="51.9483755 31.1272563 22.9119134 150.340072 80.9871841 150.340072"></polygon>
                <polygon id="Path" fill="#A2A6F6" fill-rule="nonzero" points="29.2429603 31.1272563 0.204151625 160.716606 58.2794224 160.716606"></polygon>
                <line x1="29.4001805" y1="160.13935" x2="29.4001805" y2="43.7306859" id="Path" stroke="#737AF1" stroke-width="0.901083032" stroke-linecap="round" stroke-linejoin="round"></line>
                <line x1="29.4001805" y1="82.118231" x2="35.7101083" y2="75.2592058" id="Path" stroke="#737AF1" stroke-width="0.901083032" stroke-linecap="round" stroke-linejoin="round"></line>
                <line x1="29.4001805" y1="114.96787" x2="38.8826715" y2="104.661733" id="Path" stroke="#737AF1" stroke-width="0.901083032" stroke-linecap="round" stroke-linejoin="round"></line>
                <line x1="29.4001805" y1="149.237184" x2="44.1483755" y2="133.205415" id="Path" stroke="#737AF1" stroke-width="0.901083032" stroke-linecap="round" stroke-linejoin="round"></line>
                <line x1="29.4001805" y1="82.118231" x2="23.0902527" y2="75.2592058" id="Path" stroke="#737AF1" stroke-width="0.901083032" stroke-linecap="round" stroke-linejoin="round"></line>
                <line x1="29.4001805" y1="114.96787" x2="19.9200361" y2="104.661733" id="Path" stroke="#737AF1" stroke-width="0.901083032" stroke-linecap="round" stroke-linejoin="round"></line>
                <line x1="29.4001805" y1="149.237184" x2="14.6519856" y2="133.205415" id="Path" stroke="#737AF1" stroke-width="0.901083032" stroke-linecap="round" stroke-linejoin="round"></line>
                <rect id="Rectangle" fill="url(#linearGradient-1)" fill-rule="nonzero" x="34.1425993" y="123.274729" width="31.7702166" height="46.2649819" rx="15.883935"></rect>
                <line x1="50.0265343" y1="181.610469" x2="50.0265343" y2="137.708484" id="Path" stroke="#FED385" stroke-width="0.865884477" stroke-linecap="round" stroke-linejoin="round"></line>
                <path d="M50.0265343,156.377798 C58.7088448,156.377798 58.7088448,151.149639 58.7088448,143.237004" id="Path" stroke="#FED385" stroke-width="0.865884477" stroke-linecap="round" stroke-linejoin="round"></path>
                <path d="M50.0265343,148.380686 C44.0075812,148.380686 44.0075812,144.750542 44.0075812,139.266606" id="Path" stroke="#FED385" stroke-width="0.865884477" stroke-linecap="round" stroke-linejoin="round"></path>
                <path d="M259.852166,150.340072 L259.852166,107.606679 C259.821237,97.0858313 251.300089,88.5646832 240.779242,88.5337545 L240.779242,88.5337545 C239.751904,88.5343078 238.726275,88.6174881 237.712274,88.782491 L237.712274,39.6054152 C237.712274,32.3955263 231.868192,26.5503933 224.658303,26.5490975 L224.658303,26.5490975 C217.447498,26.5490975 211.601986,32.39461 211.601986,39.6054152 L211.601986,50.13213 C209.637514,49.4627119 207.576298,49.1210257 205.500903,49.1207581 L205.500903,49.1207581 C194.979142,49.1516932 186.457619,57.6742651 186.427978,68.1960289 L186.427978,103.249097 L178.123466,103.249097 C170.936008,103.271001 165.114864,109.092146 165.09296,116.279603 L165.09296,146.627798 C165.09296,147.885091 165.276627,149.135641 165.637365,150.340072 L259.852166,150.340072 Z" id="Path" fill="#A2A6F6" fill-rule="nonzero"></path>
                <path d="M224.135018,124.802347 C245.631949,124.802347 245.631949,115.181408 245.631949,100.632671" id="Path" stroke="#737AF1" stroke-width="0.865884477" stroke-linecap="round" stroke-linejoin="round"></path>
                <path d="M224.156137,137.621661 C212.329422,137.621661 212.329422,132.327798 212.329422,124.323646" id="Path" stroke="#737AF1" stroke-width="0.865884477" stroke-linecap="round" stroke-linejoin="round"></path>
                <line x1="224.135018" y1="150.340072" x2="224.135018" y2="36.4117329" id="Path" stroke="#737AF1" stroke-width="0.865884477" stroke-linecap="round" stroke-linejoin="round"></line>
                <line x1="224.135018" y1="100.632671" x2="212.350542" y2="88.8458484" id="Path" stroke="#737AF1" stroke-width="0.865884477" stroke-linecap="round" stroke-linejoin="round"></line>
                <line x1="224.135018" y1="76.3128159" x2="231.266245" y2="69.183935" id="Path" stroke="#737AF1" stroke-width="0.865884477" stroke-linecap="round" stroke-linejoin="round"></line>
                <path d="M165.548195,31.1272563 C166.849781,25.812154 164.07297,20.3434652 159.013721,18.2581747 C153.954471,16.1728842 148.13069,18.0966334 145.309025,22.7851986 C142.591254,21.5574047 139.436147,21.7925386 136.93039,23.4096151 C134.424633,25.0266916 132.910596,27.8047636 132.909747,30.7870036 C132.909747,30.9019856 132.909747,31.0216606 132.909747,31.1272563 L165.548195,31.1272563 Z" id="Path" fill="#EDEEFD" fill-rule="nonzero"></path>
                <path d="M57.9391697,13.9104693 C56.637584,8.595367 59.414395,3.1266782 64.4736441,1.04138771 C69.5328932,-1.04390279 75.3566742,0.879846346 78.1783394,5.56841155 C80.8959325,4.33662702 84.0531973,4.56994806 86.560201,6.1878289 C89.0672046,7.80570975 90.5804779,10.5864945 90.5776214,13.5702166 C90.5776214,13.682852 90.5776214,13.8048736 90.5776214,13.9104693 L57.9391697,13.9104693 Z" id="Path" fill="#EDEEFD" fill-rule="nonzero"></path>
                <path d="M206.340975,170.609747 C194.542419,170.609747 184.987184,175.647834 184.987184,181.873285 L227.706498,181.873285 C227.699458,175.647834 218.137184,170.609747 206.340975,170.609747 Z" id="Path" fill="url(#linearGradient-2)" fill-rule="nonzero"></path>
                <path d="M107.416606,187.239892 C104.471661,187.239892 102.082852,189.295487 102.082852,191.83213 L112.752708,191.83213 C112.752708,189.295487 110.363899,187.239892 107.416606,187.239892 Z" id="Path" fill="#FFCF5C" fill-rule="nonzero"></path>
                <path d="M184.980144,162.720578 C182.032852,162.720578 179.64639,165.771119 179.64639,169.539711 L190.306859,169.539711 C190.306859,165.773466 187.92509,162.720578 184.980144,162.720578 Z" id="Path" fill="#FFCF5C" fill-rule="nonzero"></path>
                <path d="M17.8034296,179.64639 C13.1102888,179.64639 9.31823105,181.174007 9.31823105,183.055957 L26.2815884,183.055957 C26.2815884,181.174007 22.4895307,179.64639 17.8034296,179.64639 Z" id="Path" fill="#FFCF5C" fill-rule="nonzero"></path>
                <path d="M231.266245,179.64639 C226.573105,179.64639 222.781047,181.174007 222.781047,183.055957 L239.749097,183.055957 C239.749097,181.174007 235.952347,179.64639 231.266245,179.64639 Z" id="Path" fill="#FFCF5C" fill-rule="nonzero"></path>
                <rect id="Rectangle" fill="url(#linearGradient-3)" fill-rule="nonzero" x="186.134657" y="126.139892" width="20.5723827" height="29.9563177" rx="10.2850181"></rect>
                <line x1="196.422022" y1="163.914982" x2="196.422022" y2="135.486282" id="Path" stroke="#737AF1" stroke-width="0.560830325" stroke-linecap="round" stroke-linejoin="round"></line>
                <path d="M196.422022,147.575812 C202.039711,147.575812 202.039711,144.189711 202.039711,139.067148" id="Path" stroke="#737AF1" stroke-width="0.560830325" stroke-linecap="round" stroke-linejoin="round"></path>
                <path d="M196.422022,142.396931 C192.524368,142.396931 192.524368,140.050361 192.524368,136.49296" id="Path" stroke="#737AF1" stroke-width="0.560830325" stroke-linecap="round" stroke-linejoin="round"></path>
                <line x1="67.2785199" y1="173.329422" x2="86.2951264" y2="173.329422" id="Path" stroke="#FCD035" stroke-width="0.865884477" stroke-linecap="round" stroke-linejoin="round"></line>
                <line x1="146.285199" y1="160.716606" x2="158.895668" y2="160.716606" id="Path" stroke="#FCD035" stroke-width="0.865884477" stroke-linecap="round" stroke-linejoin="round"></line>
                <line x1="136.774549" y1="163.914982" x2="149.387365" y2="163.914982" id="Path" stroke="#FCD035" stroke-width="0.865884477" stroke-linecap="round" stroke-linejoin="round"></line>
                <line x1="16.867148" y1="166.522022" x2="29.4799639" y2="166.522022" id="Path" stroke="#FCD035" stroke-width="0.865884477" stroke-linecap="round" stroke-linejoin="round"></line>
                <line x1="165.09296" y1="185.435379" x2="182.8213" y2="185.435379" id="Path" stroke="#FCD035" stroke-width="0.865884477" stroke-linecap="round" stroke-linejoin="round"></line>
            </g>
        </g>
    </g>
</svg>